<?xml version="1.0" encoding="UTF-8"?>
<svg id="Layer_2" data-name="Layer 2" xmlns="http://www.w3.org/2000/svg" viewBox="0 0 921.26 921.26">
  <defs>
    <style>
      .cls-1, .cls-2, .cls-3, .cls-4, .cls-5, .cls-6 {
        stroke-width: 0px;
      }

      .cls-1, .cls-7 {
        fill: #181d62;
      }

      .cls-2 {
        fill: #e60013;
      }

      .cls-3 {
        fill: none;
      }

      .cls-4 {
        fill: #f39800;
      }

      .cls-5 {
        fill: #e7292a;
      }

      .cls-7 {
        stroke: #fff;
        stroke-linecap: round;
        stroke-miterlimit: 10;
        stroke-width: .1px;
      }

      .cls-6 {
        fill: #fff;
      }
    </style>
  </defs>
  <g id="_图层_1" data-name="图层 1">
    <g>
      <rect class="cls-3" width="921.26" height="921.26"/>
      <rect class="cls-3" width="921.26" height="921.26"/>
      <g>
        <g>
          <path class="cls-4" d="M775.48,386.8c.95,3.68.95,6.77,0,10.04-1.19,4.04-1.57,7.4-1.19,10.4.27,2.05,6.18,17.53,8.65,22.55.59,1.19,1.78,2.91,2.61,3.74,1.37,1.37,1.6,1.9,1.84,4.16.36,2.91-.15,10.72-1.07,17.11-1.1,7.87-2.38,13.19-4.99,21.21-1.46,4.37-3.33,10.28-4.19,13.1-.83,2.85-1.63,4.9-1.78,4.58s0-1.01.3-1.54c.33-.51.59-2.26.65-3.92.09-3.54.86-6.39,4.07-15,1.34-3.59,2.55-7.43,2.76-8.53,1.07-5.64-.39-12.98-3.98-20.08-1.25-2.5-2.44-4.52-2.64-4.49-.21-.03-.77,1.96-1.25,4.34-.86,4.13-1.19,15.33-1.13,37.31.03,6.51-.03,6.92-.62,4.78-1.04-3.71-1.78-7.9-2.41-13.04-1.31-11.23-3.74-22.76-5.38-25.1-1.66-2.44-6.65-4.99-12.18-6.24l-2.08-.48-.36,2.32c-.59,3.56-.27,9.71.62,12.39,1.87,5.32,10.25,18.33,14.76,22.85,2.11,2.11,4.37,6.68,6.27,12.63l1.84,5.7-4.31,14.82c-2.32,8.14-4.4,15.33-4.52,15.98-.27,1.16-.3,1.07-1.13-1.66-.92-3.06-.92-4.49.18-11.11.89-5.47.86-10.61-.12-12.95-1.93-4.84-4.93-15.51-5.64-20.26-.21-1.57-.48-2.2-.95-2.2-1.01,0-1.46,1.28-2.17,6.15-.36,2.5-1.22,6.8-1.9,9.57-1.4,5.61-1.46,8.35-.36,13.73,1.52,7.69,4.25,14.53,7.84,19.61l2.35,3.36-3.33,1.01c-4.04,1.19-4.63,1.9-4.55,5.61,0,1.37-.12,2.67-.27,2.82-.18.18-1.07.36-1.99.45-2.23.21-3.62-1.13-3.71-3.54-.06-1.31.15-1.87.86-2.35,1.31-.89,3.21-4.58,3.42-6.57.3-3.74-1.63-6.39-4.93-6.71-1.1-.09-2.61.12-3.39.53-1.25.59-1.49.95-2.08,2.79-.83,2.61-.36,5.7,1.22,7.63,2.05,2.58,2.2,2.97,1.57,4.19-.51,1.1-.65,1.19-1.81.8-1.81-.56-6.33-.27-7.07.48-.36.36-.65,1.78-.62,3.24-.03,2.11.18,2.79,1.07,3.68,1.49,1.49,3.33,2.02,5.38,1.52,1.72-.42,2.73-1.37,4.07-3.83.33-.62.59-.71.95-.36.77.77.56,2.58-.45,4.07-3.12,4.55-3.45,10.93-.8,16.61.42.89.27,1.34-.74,2.7-1.28,1.63-5.41,8.02-10.75,16.46-1.6,2.61-4.72,7.4-6.86,10.67s-4.19,6.39-4.58,7.01c-1.16,1.87.39-3.89,3.95-14.47,4.13-12.33,5.11-16.87,4.58-21.03-.21-1.75-.18-5.64.09-8.7.48-5.41.59-10.46.24-10.1-.12.12-.62-.92-1.13-2.26-.62-1.75-1.52-3.18-3-4.84l-2.14-2.38.45,2.53c.83,4.63.59,6-2.08,10.93-2.58,4.84-5.08,10.78-5.97,14.17-.71,2.85-1.52,13.4-1.31,17.88.09,1.99.53,5.53,1.04,7.81.48,2.32.95,5.64,1.01,7.43.09,1.75.48,4.22.95,5.41.71,2.02.68,2.41-.3,4.22-1.1,2.05-1.63,2.7-1.87,2.47-.06-.06-.71-3.21-1.46-6.98-.74-3.77-1.66-7.78-2.08-8.91-.89-2.38-2.88-4.6-4.72-5.2-2.14-.65-5.17-.24-6.27.86-1.07,1.07-1.78,4.28-1.43,6.3.24,1.43,1.99,3.24,3.98,4.04,2.29.92,3.48.86,4.55-.21,1.13-1.13,2.11-1.16,3.15-.12.89.89,1.34,3.71.74,4.84-.21.39-.86.92-1.46,1.22-.83.36-1.28.27-1.93-.39-1.22-1.22-3.42-1.34-6-.42-2.91,1.07-3.33,1.54-3.33,3.92,0,1.6.24,2.26,1.19,3.21,1.31,1.31,3.59,1.93,5.91,1.57,1.28-.21,1.49-.36,2.29-1.87,1.66-3.09,1.87-3.3,3-3.36,1.07-.06,1.13,0,1.19,1.01.03.56-.33,2.29-.77,3.8-.45,1.52-.83,3.62-.83,4.69-.03,1.22-.65,3.56-1.72,6.06-.89,2.26-2.11,5.56-2.61,7.31-.53,1.78-1.75,4.9-2.73,6.89-1.66,3.33-2.02,3.74-3.54,4.66l-1.72,1.01-.39-1.63c-.48-1.78-.65-2.14-.83-1.43-.12.48-5.61,7.63-6.83,8.91-.33.33-.18-1.07.36-3.21,1.6-6.3,2.2-11.65,2.2-20.14.03-10.96-.12-11.29-2.38-5.11-3.12,8.7-4.43,11.26-8.62,16.7-2.11,2.76-4.63,6.18-5.61,7.63-.95,1.43-1.81,2.58-1.9,2.61-.09-.03-.33-1.04-.51-2.29-1.01-6.36-6.18-23.59-10.13-33.78-2.02-5.23-3.51-6.65-4.72-4.55-.36.59-.06,2.2,1.07,5.64,3.77,11.73,4.49,20.35,2.53,30.75-1.99,10.67-2.08,19.49-.15,22.43.42.65.95,1.6,1.19,2.14l.42.95-1.57.03c-3.21.12-4.72.68-6,2.32-1.49,1.84-2.02,4.63-1.63,8.47.27,2.41.51,3.06,1.63,4.19.77.77,2.11,1.57,3.15,1.9,1.01.36,1.81.74,1.81.92.03.15-1.07,1.07-2.41,2.05-1.31.95-5.56,4.9-9.39,8.73-4.81,4.81-7.13,6.95-7.52,6.86-.33-.09-.95.42-1.66,1.37-.86,1.1-1.54,1.6-2.53,1.87-.77.18-1.49.24-1.6.12s.33-.92,1.04-1.81c.65-.89,2.5-3.51,4.07-5.85,10.84-16.25,12.15-19.16,12.6-28.4.3-5.59,0-10.4-.8-14.41-.45-2.11-.62-5.79-.45-9.54.42-9.27.45-8.65-.09-7.4-.24.59-1.04,1.93-1.75,3s-1.99,3.54-2.79,5.53c-1.54,3.62-5.94,13.31-6.18,13.55-.09.09-.62-1.34-1.22-3.12-1.46-4.6-4.84-12.27-7.81-17.68-1.43-2.55-2.67-4.63-2.79-4.63s-.06.95.15,2.11c.45,2.47.24,12.42-.36,16.7-.27,1.69-.95,4.99-1.54,7.37-1.46,5.73-1.66,9.63-.65,12.48.42,1.25,2.55,4.99,4.72,8.29,4.25,6.51,4.75,7.72,5.5,12.63.45,2.94.03,5.14-1.01,5.11-.18,0-.77-.95-1.31-2.14-.77-1.72-.86-2.64-.53-4.46.83-4.16.8-4.55-.95-5.94-2.17-1.69-4.84-2.47-6.36-1.84-3.86,1.6-2.44,6.42,2.53,8.47l2.35.98,1.25,3.92c1.22,3.89,1.25,3.92.12,5.23-1.07,1.25-1.16,1.28-2.38.42-1.46-.98-1.6-1.43-1.46-4.13.33-4.43-3.24-6.33-7.69-4.13-2.85,1.37-2.85,3.92.03,6.8,1.4,1.4,1.52,1.63.95,2.2-.77.77-2.2,1.07-6.71,1.43-6.21.51-10.64,2.61-17.41,8.32-4.9,4.13-8.76,8.59-14.2,16.46-3.89,5.67-3.74,5.53-10.13,7.99l-2.58.98,3.95-4.37c13.4-14.76,18.72-24.24,21.24-37.88,1.63-8.88.59-24.95-1.66-24.95-1.01,0-1.37,1.37-1.84,6.12-.39,4.55-2.29,11.2-4.37,15.42-.59,1.13-2.61,3.8-4.9,6.39-4.84,5.5-9.45,11.59-10.75,14.2-.53,1.07-1.66,5.29-2.53,9.36-1.9,9.27-2.26,9.98-6.57,13.87-4.72,4.25-8.35,6.33-11.56,6.62-2.35.27-8.14-.3-8.05-.74-.03-.09,1.31-1.13,2.91-2.32,5.85-4.31,13.73-11.47,16.43-14.94,2.47-3.12,2.67-3.62,8.14-18.42,7.19-19.37,9.83-26.95,9.45-26.92-.15-.03-2.7,3.42-5.67,7.58-5.73,8.11-7.01,9.57-17.38,19.4-5.91,5.61-5.64,5.05-7.99,16.96-.98,5.14-2.05,9.18-2.64,10.25-1.01,1.78-3.24,3.83-6.15,5.61-.68.45-1.72,1.07-2.29,1.46-.98.62-5.38.15-13.93-1.46-2.94-.56-3.62-.83-4.9-2.11-1.66-1.66-2.58-4.01-2.5-6.3,0-.83-.12-1.66-.3-1.84-.48-.48-4.46-.3-6.24.3-1.22.39-1.93.98-3.51,2.79-1.4,1.63-2.14,2.26-2.47,2.11-.3-.12-4.49-.8-9.42-1.52-8.65-1.22-12.39-1.99-20.88-4.25-5.2-1.4-12.54-1.43-19.04-.09-2.7.56-8.62,2.14-13.16,3.48-9.98,2.97-11.91,3.36-17.71,3.68-2.5.12-6.06.53-7.96.95l-3.45.71-2.94,3c-4.37,4.43-12.27,13.75-12.39,14.53-.21,1.99,3.56,2.79,7.75,1.69,2.73-.77,3.65-1.57,6.27-5.5,1.84-2.79,1.9-2.85,5.05-4.52,1.75-.92,3.77-2.05,4.46-2.5,2.08-1.43,5.61-2.41,9.95-2.82,4.46-.42,6.74-.92,14.82-3.3,10.93-3.21,17.47-3.8,26.86-2.55,2.76.39,7.96.95,11.62,1.22,7.4.62,12.89,1.6,17.82,3.27,1.81.62,4.52,1.43,6,1.78,1.9.48,3.54,1.28,5.5,2.64,1.52,1.04,3.71,2.29,4.87,2.73,1.96.71,2.08.71,1.57-.15-.45-.8-.27-.8,1.57.15,1.13.59,2.61,1.6,3.27,2.26l1.16,1.16.18-1.43c.09-.8.06-2.02-.06-2.67l-.27-1.22,3.83.51c2.55.36,5.05,1.07,7.55,2.2,6.54,2.91,8.2,3.98,10.99,7.19,2.97,3.39,8.7,8.29,12.09,10.37,1.34.8,4.22,2.08,6.45,2.88,4.87,1.72,9.51,1.9,16.1.59,2.5-.48,5.56-.8,6.83-.65,3.95.45,11.73,1.99,14.35,2.88,1.93.68,2.55.71,2.61.18.18-1.96-3.71-5.14-11.08-9.06-2.47-1.28-5.61-3.3-7.04-4.43-3.68-3.03-5.82-3.92-11.97-5.14-8.32-1.66-15.75-2.44-22.04-2.32-5.05.12-6.06,0-8.85-1.19-1.72-.71-3.51-1.49-3.92-1.72-.45-.27,1.78-.48,4.96-.51,3.15-.06,7.55-.42,9.74-.83,4.25-.74,19.73-.95,22.73-.33,1.01.24,3.39,1.43,5.29,2.61,11.02,6.86,17.74,9.24,26.29,9.18,4.55-.03,9-1.46,12.98-4.13,1.57-1.04,3.36-2.05,3.98-2.26,1.66-.53,13.46-.74,17.56-.33,1.93.21,3.48.27,3.51.18,0-.48-13.19-5.7-21.33-8.5-11.53-3.92-16.67-4.96-24.21-4.9-6.83,0-11.88.71-15.3,2.17-1.28.56-3.56,1.13-5.05,1.31-3.36.39-8.59.33-8.62-.06.03-.15,1.01-.77,2.23-1.34,1.19-.59,3.74-1.9,5.64-2.97,2.91-1.54,4.07-1.93,6.71-2.14,4.55-.39,7.99-1.1,13.81-2.94,9.95-3.18,13.61-2.26,14.59,3.71.42,2.5.98,3,4.6,4.25,2.32.77,4.01.62,5.08-.45.77-.77,1.63-3.77,1.19-4.22-.62-.62.33-.68,2.2-.12,1.1.39,2.29.51,2.64.39,1.01-.48,3.39-4.34,3.42-5.61.09-1.52-1.19-2.79-3.45-3.51-2.23-.74-4.87-.12-6.48,1.49l-1.19,1.25-4.49-1.22c-6.6-1.78-9.92-1.66-16.7.53-5.41,1.78-10.78,3.12-10.81,2.67,0-.42,10.78-6.09,13.34-7.04,3.09-1.13,14.56-3.39,23.02-4.55,11.2-1.52,17.14-1.28,19.13.71,1.31,1.37,2.2,4.04,2.41,7.46.33,5.2,1.6,7.07,6.54,9.51,2.2,1.07,3.54,2.05,5.32,3.83,6.89,6.95,9.83,13.7,8.23,18.86l-.51,1.63,1.04-1.04c2.97-2.91,5.88-8.97,6.3-13.07.39-4.19-.39-6.39-5.67-15.24-4.25-7.16-5.17-8.5-7.9-11.29-2.5-2.55-3.42-3.24-4.69-3.62l-1.6-.48,2.88-.09c3.36-.15,5.26-1.04,16.07-7.58,9.51-5.76,12.63-7.1,16.31-7.04,3.06.09,6.89-.42,7.46-.98.53-.53-2.17-2.35-5.32-3.48-5.41-2.02-13.01-1.31-23.59,2.2-4.19,1.4-6.51,1.87-10.75,2.14-7.28.45-9.27,1.01-11.35,3.15-.89.89-2.32,1.96-3.15,2.32-1.99.86-6.8,3.89-11.35,7.19-3.54,2.53-3.74,2.61-7.37,3.03-2.02.24-3.42.27-3.03.12,2.35-1.1,4.4-2.61,7.81-5.67l3.89-3.54,1.22.74c2.32,1.37,5.88-.42,6.62-3.36.36-1.31-.03-3-.83-3.8-.33-.33-.12-.77.68-1.57,1.04-1.04,1.54-1.13,4.49-1.04,1.87.09,4.31.27,5.5.39,3.36.39,9.15-1.78,15.92-5.94,7.61-4.63,14.44-8.02,23.47-11.59,14.59-5.79,22.79-10.01,26.11-13.34.95-.95,2.47-3.12,3.42-4.9,4.87-9.03,10.25-15.83,13.16-16.79,1.43-.42,1.4-.51-.39-1.1-1.57-.51-10.69.77-14.35,1.93-3.59,1.22-4.9,2.05-10.55,7.04-2.79,2.44-6,5.17-7.1,6.09l-2.05,1.69,1.04-3c1.34-3.83,1.99-8.35,2.11-14.59l.09-5.08,6.71-1.96,6.74-1.93,3.98.95c5.85,1.4,7.49,1.01,8.79-2.2.74-1.81.45-4.07-.74-5.26-.51-.51-2.17-1.34-3.65-1.87-3.45-1.13-4.6-.68-7.01,2.79-1.93,2.76-3,3.54-5.56,4.01-1.1.21-3.56.89-5.53,1.54-1.96.65-3.68,1.19-3.8,1.19s-.27-.51-.33-1.16c-.03-.92-.18-1.13-.65-1.01-1.52.33.3-1.49,5.38-5.44,10.37-8.11,12.89-9.74,23.2-15.24,8.91-4.75,13.46-7.75,16.79-11.08,2.17-2.17,2.88-3.24,4.84-7.16,2.94-5.97,10.64-24.95,10.25-25.34-.06-.06-1.75,1.57-3.8,3.62l-3.68,3.68-4.52,1.43c-2.5.77-5.56,2.05-6.83,2.85-4.99,3.09-10.72,10.01-20.83,25.1l-5.5,8.17-4.78,4.43c-2.64,2.41-5.5,4.9-6.39,5.5-1.49,1.07-1.54,1.07-1.13.06.24-.59.98-2.58,1.66-4.46,1.37-3.74,1.87-4.49,2.55-3.8.77.77,2.55-.3,3.71-2.23,1.49-2.44,1.84-5.17.95-6.83-.71-1.31-.62-1.57.68-4.13q1.46-2.7,3-3.12c1.43-.36,2.11-.92,7.55-6.48,3.3-3.36,9.3-9.24,13.34-13.04,10.93-10.22,13.49-13.37,20.86-25.49,3.36-5.5,6.45-10.67,6.92-11.5l.86-1.52-7.28,3.71c-3.98,2.08-7.87,4.01-8.59,4.37l-1.34.56,2.41-6.27,2.44-6.3,1.72-.83c1.66-.77,1.78-.95,2.26-2.44.24-.89.24-2.79-.06-4.28-.3-1.43-.36-2.79-.12-3.03.21-.21,1.07-.3,1.93-.15,2.41.39,5.47-.59,7.72-2.55,2.11-1.75,4.9-5.61,4.46-6.06-.15-.15-1.22-.33-2.32-.42l-2.08-.12,1.81-1.46c1.01-.77,4.99-4.16,8.85-7.49,9.48-8.11,10.67-9.83,15.27-21.57,2.26-5.82,3.18-9.6,2.79-11.82-.33-2.17-1.16-1.99-3.71.68-6.33,6.68-14.08,15.57-15.57,17.88-1.72,2.55-5.5,9.95-7.99,15.6-.68,1.52-1.72,3.27-2.35,3.89-1.1,1.1-5.11,3.74-5.67,3.71-.36,0,.71-3.98,6-21.98,3.39-11.65,4.58-15.09,5.59-16.4,1.81-2.29,9.74-12.24,14.38-18,9.63-11.94,12.21-16.01,15.63-24.18,5.38-13.1,6.77-21.69,4.69-29.11l-.53-1.84-.68.68c-1.25,1.25-7.22,9.54-9.15,12.72-3,4.96-3.95,8.47-4.43,16.07-.68,12.51-1.81,15.3-11.02,27.6-6.39,8.47-7.04,9.3-7.34,9.3-.18,0,.48-2.08,1.4-4.6,3.33-8.91,6.18-28.04,5.35-35.71-.18-1.43-.24-4.1-.15-5.97.51-11.26-.06-16.93-2.61-27.21-2.08-8.2-4.81-13.78-8.65-17.62-2.61-2.61-3.45-2.85-2.97-1.01ZM757.44,544.05c.39.03,1.13.36,1.63.68.92.56.89.77-1.75,7.4l-2.7,6.86-2.2,1.6c-1.19.89-2.26,1.54-2.38,1.43-.53-.53-.83-4.63-.51-6.39.8-3.83,2.26-6.65,4.84-9.24,1.6-1.6,2.64-2.41,3.06-2.35ZM630.89,708.03c1.04.09,4.58,1.78,4.58,2.2,0,.06-2.29,2.94-5.05,6.36l-5.08,6.21-2.64.8-2.64.8,1.57-1.87c.86-1.04,1.96-2.91,2.44-4.16.65-1.72,4.01-7.99,5.44-10.19.09-.09.71-.18,1.4-.15ZM639.21,711.42c.48.18.95.36,1.04.45.27.27-6.98,7.28-8.29,8.05-1.34.8-1.4.86,2.26-3.68,4.07-5.14,4.01-5.08,4.99-4.81ZM666.3,690.09c2.47-2.11,6.51-4.07,7.87-3.83.27.03.53.95.59,1.96.18,2.38,1.01,3.86,2.08,3.56.59-.18.8-.03.86.51.09.98.39.86,3.83-1.52,1.63-1.1,3.09-2.02,3.24-1.99.18,0-.53.83-1.57,1.87-3.48,3.48-17.68,10.49-21.42,10.55-1.99.03-6-.53-6.39-.92-.21-.21,5.44-5.44,10.9-10.19ZM656.61,720.81c.86-.21,2.82-.09,4.37.21l2.82.62-4.49.03c-2.47.03-4.52,0-4.55-.03-.21-.21.42-.48,1.84-.83Z"/>
          <path class="cls-4" d="M142.81,387.81c-3.83,3.83-6.57,9.42-8.65,17.62-2.55,10.28-3.12,15.95-2.61,27.21.09,1.87.03,4.55-.15,5.97-.83,7.66,2.02,26.8,5.35,35.71.92,2.53,1.57,4.6,1.4,4.6-.3,0-.95-.83-7.34-9.3-9.21-12.3-10.34-15.09-11.02-27.6-.48-7.61-1.43-11.11-4.43-16.07-1.93-3.18-7.9-11.47-9.15-12.72l-.68-.68-.53,1.84c-2.08,7.43-.68,16.01,4.69,29.11,3.42,8.17,6,12.24,15.63,24.18,4.63,5.76,12.57,15.72,14.38,18,1.01,1.31,2.2,4.75,5.59,16.4,5.29,18,6.36,21.98,6,21.98-.56.03-4.58-2.61-5.67-3.71-.62-.62-1.66-2.38-2.35-3.89-2.5-5.64-6.27-13.04-7.99-15.6-1.49-2.32-9.24-11.2-15.57-17.88-2.55-2.67-3.39-2.85-3.71-.68-.39,2.23.53,6,2.79,11.82,4.6,11.73,5.79,13.46,15.27,21.57,3.86,3.33,7.84,6.71,8.85,7.49l1.81,1.46-2.08.12c-1.1.09-2.17.27-2.32.42-.45.45,2.35,4.31,4.46,6.06,2.26,1.96,5.32,2.94,7.72,2.55.86-.15,1.72-.06,1.93.15.24.24.18,1.6-.12,3.03-.3,1.49-.3,3.39-.06,4.28.48,1.49.59,1.66,2.26,2.44l1.72.83,2.44,6.3,2.41,6.27-1.34-.56c-.71-.36-4.6-2.29-8.59-4.37l-7.28-3.71.86,1.52c.48.83,3.56,6,6.92,11.5,7.37,12.12,9.92,15.27,20.86,25.49,4.04,3.8,10.04,9.68,13.34,13.04,5.44,5.56,6.12,6.12,7.55,6.48q1.54.42,3,3.12c1.31,2.55,1.4,2.82.68,4.13-.89,1.66-.53,4.4.95,6.83,1.16,1.93,2.94,3,3.71,2.23.68-.68,1.19.06,2.55,3.8.68,1.87,1.43,3.86,1.66,4.46.42,1.01.36,1.01-1.13-.06-.89-.59-3.74-3.09-6.39-5.5l-4.78-4.43-5.5-8.17c-10.1-15.09-15.83-22.01-20.83-25.1-1.28-.8-4.34-2.08-6.83-2.85l-4.52-1.43-3.68-3.68c-2.05-2.05-3.74-3.68-3.8-3.62-.39.39,7.31,19.37,10.25,25.34,1.96,3.92,2.67,4.99,4.84,7.16,3.33,3.33,7.87,6.33,16.79,11.08,10.31,5.5,12.83,7.13,23.2,15.24,5.08,3.95,6.89,5.76,5.38,5.44-.48-.12-.62.09-.65,1.01-.06.65-.21,1.16-.33,1.16s-1.84-.53-3.8-1.19c-1.96-.65-4.43-1.34-5.53-1.54-2.55-.48-3.62-1.25-5.56-4.01-2.41-3.48-3.56-3.92-7.01-2.79-1.49.53-3.15,1.37-3.65,1.87-1.19,1.19-1.49,3.45-.74,5.26,1.31,3.21,2.94,3.59,8.79,2.2l3.98-.95,6.74,1.93,6.71,1.96.09,5.08c.12,6.24.77,10.75,2.11,14.59l1.04,3-2.05-1.69c-1.1-.92-4.31-3.65-7.1-6.09-5.64-4.99-6.95-5.82-10.55-7.04-3.65-1.16-12.77-2.44-14.35-1.93-1.78.59-1.81.68-.39,1.1,2.91.95,8.29,7.75,13.16,16.79.95,1.78,2.47,3.95,3.42,4.9,3.33,3.33,11.53,7.55,26.11,13.34,9.03,3.56,15.86,6.95,23.47,11.59,6.77,4.16,12.57,6.33,15.92,5.94,1.19-.12,3.62-.3,5.5-.39,2.94-.09,3.45,0,4.49,1.04.8.8,1.01,1.25.68,1.57-.8.8-1.19,2.5-.83,3.8.74,2.94,4.31,4.72,6.62,3.36l1.22-.74,3.89,3.54c3.42,3.06,5.47,4.58,7.81,5.67.39.15-1.01.12-3.03-.12-3.62-.42-3.83-.51-7.37-3.03-4.55-3.3-9.36-6.33-11.35-7.19-.83-.36-2.26-1.43-3.15-2.32-2.08-2.14-4.07-2.7-11.35-3.15-4.25-.27-6.57-.74-10.75-2.14-10.58-3.51-18.18-4.22-23.59-2.2-3.15,1.13-5.85,2.94-5.32,3.48.56.56,4.4,1.07,7.46.98,3.68-.06,6.8,1.28,16.31,7.04,10.81,6.54,12.72,7.43,16.07,7.58l2.88.09-1.6.48c-1.28.39-2.2,1.07-4.69,3.62-2.73,2.79-3.65,4.13-7.9,11.29-5.29,8.85-6.06,11.05-5.67,15.24.42,4.1,3.33,10.16,6.3,13.07l1.04,1.04-.51-1.63c-1.6-5.17,1.34-11.91,8.23-18.86,1.78-1.78,3.12-2.76,5.32-3.83,4.93-2.44,6.21-4.31,6.54-9.51.21-3.42,1.1-6.09,2.41-7.46,1.99-1.99,7.93-2.23,19.13-.71,8.47,1.16,19.93,3.42,23.02,4.55,2.55.95,13.34,6.62,13.34,7.04-.03.45-5.41-.89-10.81-2.67-6.77-2.2-10.1-2.32-16.7-.53l-4.49,1.22-1.19-1.25c-1.6-1.6-4.25-2.23-6.48-1.49-2.26.71-3.54,1.99-3.45,3.51.03,1.28,2.41,5.14,3.42,5.61.36.12,1.54,0,2.64-.39,1.87-.56,2.82-.51,2.2.12-.45.45.42,3.45,1.19,4.22,1.07,1.07,2.76,1.22,5.08.45,3.62-1.25,4.19-1.75,4.6-4.25.98-5.97,4.63-6.89,14.59-3.71,5.82,1.84,9.27,2.55,13.81,2.94,2.64.21,3.8.59,6.71,2.14,1.9,1.07,4.46,2.38,5.64,2.97,1.22.56,2.2,1.19,2.23,1.34-.03.39-5.26.45-8.62.06-1.49-.18-3.77-.74-5.05-1.31-3.42-1.46-8.47-2.17-15.3-2.17-7.55-.06-12.69.98-24.21,4.9-8.14,2.79-21.33,8.02-21.33,8.5.03.09,1.57.03,3.51-.18,4.1-.42,15.89-.21,17.56.33.62.21,2.41,1.22,3.98,2.26,3.98,2.67,8.44,4.1,12.98,4.13,8.56.06,15.27-2.32,26.29-9.18,1.9-1.19,4.28-2.38,5.29-2.61,3-.62,18.48-.42,22.73.33,2.2.42,6.6.77,9.74.83,3.18.03,5.41.24,4.96.51-.42.24-2.2,1.01-3.92,1.72-2.79,1.19-3.8,1.31-8.85,1.19-6.3-.12-13.73.65-22.04,2.32-6.15,1.22-8.29,2.11-11.97,5.14-1.43,1.13-4.58,3.15-7.04,4.43-7.37,3.92-11.26,7.1-11.08,9.06.06.53.68.51,2.61-.18,2.61-.89,10.4-2.44,14.35-2.88,1.28-.15,4.34.18,6.83.65,6.6,1.31,11.23,1.13,16.1-.59,2.23-.8,5.11-2.08,6.45-2.88,3.39-2.08,9.12-6.98,12.09-10.37,2.79-3.21,4.46-4.28,10.99-7.19,2.5-1.13,4.99-1.84,7.55-2.2l3.83-.51-.27,1.22c-.12.65-.15,1.87-.06,2.67l.18,1.43,1.16-1.16c.65-.65,2.14-1.66,3.27-2.26,1.84-.95,2.02-.95,1.57-.15-.51.86-.39.86,1.57.15,1.16-.45,3.36-1.69,4.87-2.73,1.96-1.37,3.59-2.17,5.5-2.64,1.49-.36,4.19-1.16,6-1.78,4.93-1.66,10.43-2.64,17.82-3.27,3.65-.27,8.85-.83,11.62-1.22,9.39-1.25,15.92-.65,26.86,2.55,8.08,2.38,10.37,2.88,14.82,3.3,4.34.42,7.87,1.4,9.95,2.82.68.45,2.7,1.57,4.46,2.5,3.15,1.66,3.21,1.72,5.05,4.52,2.61,3.92,3.54,4.72,6.27,5.5,4.19,1.1,7.96.3,7.75-1.69-.12-.77-8.02-10.1-12.39-14.53l-2.94-3-3.45-.71c-1.9-.42-5.47-.83-7.96-.95-5.79-.33-7.72-.71-17.71-3.68-4.55-1.34-10.46-2.91-13.16-3.48-6.51-1.34-13.84-1.31-19.04.09-8.5,2.26-12.24,3.03-20.88,4.25-4.93.71-9.12,1.4-9.42,1.52-.33.15-1.07-.48-2.47-2.11-1.57-1.81-2.29-2.41-3.51-2.79-1.78-.59-5.76-.77-6.24-.3-.18.18-.3,1.01-.3,1.84.09,2.29-.83,4.63-2.5,6.3-1.28,1.28-1.96,1.54-4.9,2.11-8.56,1.6-12.95,2.08-13.93,1.46-.56-.39-1.6-1.01-2.29-1.46-2.91-1.78-5.14-3.83-6.15-5.61-.59-1.07-1.66-5.11-2.64-10.25-2.35-11.91-2.08-11.35-7.99-16.96-10.37-9.83-11.65-11.29-17.38-19.4-2.97-4.16-5.53-7.61-5.67-7.58-.39-.03,2.26,7.55,9.45,26.92,5.47,14.79,5.67,15.3,8.14,18.42,2.7,3.48,10.58,10.64,16.43,14.94,1.6,1.19,2.94,2.23,2.91,2.32.09.45-5.7,1.01-8.05.74-3.21-.3-6.83-2.38-11.56-6.62-4.31-3.89-4.66-4.6-6.57-13.87-.86-4.07-1.99-8.29-2.53-9.36-1.31-2.61-5.91-8.7-10.75-14.2-2.29-2.58-4.31-5.26-4.9-6.39-2.08-4.22-3.98-10.87-4.37-15.42-.48-4.75-.83-6.12-1.84-6.12-2.26,0-3.3,16.07-1.66,24.95,2.53,13.64,7.84,23.11,21.24,37.88l3.95,4.37-2.58-.98c-6.39-2.47-6.24-2.32-10.13-7.99-5.44-7.87-9.3-12.33-14.2-16.46-6.77-5.7-11.2-7.81-17.41-8.32-4.52-.36-5.94-.65-6.71-1.43-.56-.56-.45-.8.95-2.2,2.88-2.88,2.88-5.44.03-6.8-4.46-2.2-8.02-.3-7.69,4.13.15,2.7,0,3.15-1.46,4.13-1.22.86-1.31.83-2.38-.42-1.13-1.31-1.1-1.34.12-5.23l1.25-3.92,2.35-.98c4.96-2.05,6.39-6.86,2.53-8.47-1.52-.62-4.19.15-6.36,1.84-1.75,1.4-1.78,1.78-.95,5.94.33,1.81.24,2.73-.53,4.46-.53,1.19-1.13,2.14-1.31,2.14-1.04.03-1.46-2.17-1.01-5.11.74-4.9,1.25-6.12,5.5-12.63,2.17-3.3,4.31-7.04,4.72-8.29,1.01-2.85.8-6.74-.65-12.48-.59-2.38-1.28-5.67-1.54-7.37-.59-4.28-.8-14.23-.36-16.7.21-1.16.27-2.11.15-2.11s-1.37,2.08-2.79,4.63c-2.97,5.41-6.36,13.07-7.81,17.68-.59,1.78-1.13,3.21-1.22,3.12-.24-.24-4.63-9.92-6.18-13.55-.8-1.99-2.08-4.46-2.79-5.53s-1.52-2.41-1.75-3c-.53-1.25-.51-1.87-.09,7.4.18,3.74,0,7.43-.45,9.54-.8,4.01-1.1,8.82-.8,14.41.45,9.24,1.75,12.15,12.6,28.4,1.57,2.35,3.42,4.96,4.07,5.85.71.89,1.16,1.69,1.04,1.81s-.83.06-1.6-.12c-.98-.27-1.66-.77-2.53-1.87-.71-.95-1.34-1.46-1.66-1.37-.39.09-2.7-2.05-7.52-6.86-3.83-3.83-8.08-7.78-9.39-8.73-1.34-.98-2.44-1.9-2.41-2.05,0-.18.8-.56,1.81-.92,1.04-.33,2.38-1.13,3.15-1.9,1.13-1.13,1.37-1.78,1.63-4.19.39-3.83-.15-6.62-1.63-8.47-1.28-1.63-2.79-2.2-6-2.32l-1.57-.03.42-.95c.24-.53.77-1.49,1.19-2.14,1.93-2.94,1.84-11.76-.15-22.43-1.96-10.4-1.25-19.01,2.53-30.75,1.13-3.45,1.43-5.05,1.07-5.64-1.22-2.11-2.7-.68-4.72,4.55-3.95,10.19-9.12,27.42-10.13,33.78-.18,1.25-.42,2.26-.51,2.29-.09-.03-.95-1.19-1.9-2.61-.98-1.46-3.51-4.87-5.61-7.63-4.19-5.44-5.5-7.99-8.62-16.7-2.26-6.18-2.41-5.85-2.38,5.11,0,8.5.59,13.84,2.2,20.14.53,2.14.68,3.54.36,3.21-1.22-1.28-6.71-8.44-6.83-8.91-.18-.71-.36-.36-.83,1.43l-.39,1.63-1.72-1.01c-1.52-.92-1.87-1.34-3.54-4.66-.98-1.99-2.2-5.11-2.73-6.89-.51-1.75-1.72-5.05-2.61-7.31-1.07-2.5-1.69-4.84-1.72-6.06,0-1.07-.39-3.18-.83-4.69-.45-1.52-.8-3.24-.77-3.8.06-1.01.12-1.07,1.19-1.01,1.13.06,1.34.27,3,3.36.8,1.52,1.01,1.66,2.29,1.87,2.32.36,4.6-.27,5.91-1.57.95-.95,1.19-1.6,1.19-3.21,0-2.38-.42-2.85-3.33-3.92-2.58-.92-4.78-.8-6,.42-.65.65-1.1.74-1.93.39-.59-.3-1.25-.83-1.46-1.22-.59-1.13-.15-3.95.74-4.84,1.04-1.04,2.02-1.01,3.15.12,1.07,1.07,2.26,1.13,4.55.21,1.99-.8,3.74-2.61,3.98-4.04.36-2.02-.36-5.23-1.43-6.3s-4.13-1.52-6.27-.86c-1.84.59-3.83,2.82-4.72,5.2-.42,1.13-1.34,5.14-2.08,8.91-.74,3.77-1.4,6.92-1.46,6.98-.24.24-.77-.42-1.87-2.47-.98-1.81-1.01-2.2-.3-4.22.48-1.19.86-3.65.95-5.41.06-1.78.53-5.11,1.01-7.43.51-2.29.95-5.82,1.04-7.81.21-4.49-.59-15.03-1.31-17.88-.89-3.39-3.39-9.33-5.97-14.17-2.67-4.93-2.91-6.3-2.08-10.93l.45-2.53-2.14,2.38c-1.49,1.66-2.38,3.09-3,4.84-.51,1.34-1.01,2.38-1.13,2.26-.36-.36-.24,4.69.24,10.1.27,3.06.3,6.95.09,8.7-.53,4.16.45,8.7,4.58,21.03,3.56,10.58,5.11,16.34,3.95,14.47-.39-.62-2.44-3.74-4.58-7.01-2.14-3.27-5.26-8.05-6.86-10.67-5.35-8.44-9.48-14.82-10.75-16.46-1.01-1.37-1.16-1.81-.74-2.7,2.64-5.67,2.32-12.06-.8-16.61-1.01-1.49-1.22-3.3-.45-4.07.36-.36.62-.27.95.36,1.34,2.47,2.35,3.42,4.07,3.83,2.05.51,3.89-.03,5.38-1.52.89-.89,1.1-1.57,1.07-3.68.03-1.46-.27-2.88-.62-3.24-.74-.74-5.26-1.04-7.07-.48-1.16.39-1.31.3-1.81-.8-.62-1.22-.48-1.6,1.57-4.19,1.57-1.93,2.05-5.02,1.22-7.63-.59-1.84-.83-2.2-2.08-2.79-.77-.42-2.29-.62-3.39-.53-3.3.33-5.23,2.97-4.93,6.71.21,1.99,2.11,5.67,3.42,6.57.71.48.92,1.04.86,2.35-.09,2.41-1.49,3.74-3.71,3.54-.92-.09-1.81-.27-1.99-.45-.15-.15-.27-1.46-.27-2.82.09-3.71-.51-4.43-4.55-5.61l-3.33-1.01,2.35-3.36c3.59-5.08,6.33-11.91,7.84-19.61,1.1-5.38,1.04-8.11-.36-13.73-.68-2.76-1.54-7.07-1.9-9.57-.71-4.87-1.16-6.15-2.17-6.15-.48,0-.74.62-.95,2.2-.71,4.75-3.71,15.42-5.64,20.26-.98,2.35-1.01,7.49-.12,12.95,1.1,6.62,1.1,8.05.18,11.11-.83,2.73-.86,2.82-1.13,1.66-.12-.65-2.2-7.84-4.52-15.98l-4.31-14.82,1.84-5.7c1.9-5.94,4.16-10.52,6.27-12.63,4.52-4.52,12.89-17.53,14.76-22.85.89-2.67,1.22-8.82.62-12.39l-.36-2.32-2.08.48c-5.53,1.25-10.52,3.8-12.18,6.24-1.63,2.35-4.07,13.87-5.38,25.1-.62,5.14-1.37,9.33-2.41,13.04-.59,2.14-.65,1.72-.62-4.78.06-21.98-.27-33.18-1.13-37.31-.48-2.38-1.04-4.37-1.25-4.34-.21-.03-1.4,1.99-2.64,4.49-3.59,7.1-5.05,14.44-3.98,20.08.21,1.1,1.43,4.93,2.76,8.53,3.21,8.62,3.98,11.47,4.07,15,.06,1.66.33,3.42.65,3.92.3.53.45,1.22.3,1.54s-.95-1.72-1.78-4.58c-.86-2.82-2.73-8.73-4.19-13.1-2.61-8.02-3.89-13.34-4.99-21.21-.92-6.39-1.43-14.2-1.07-17.11.24-2.26.48-2.79,1.84-4.16.83-.83,2.02-2.55,2.61-3.74,2.47-5.02,8.38-20.5,8.65-22.55.39-3,0-6.36-1.19-10.4-.95-3.27-.95-6.36,0-10.04.48-1.84-.36-1.6-2.97,1.01ZM166.88,546.39c2.58,2.58,4.04,5.41,4.84,9.24.33,1.75.03,5.85-.51,6.39-.12.12-1.19-.53-2.38-1.43l-2.2-1.6-2.7-6.86c-2.64-6.62-2.67-6.83-1.75-7.4.51-.33,1.25-.65,1.63-.68.42-.06,1.46.74,3.06,2.35ZM291.77,708.18c1.43,2.2,4.78,8.47,5.44,10.19.48,1.25,1.57,3.12,2.44,4.16l1.57,1.87-2.64-.8-2.64-.8-5.08-6.21c-2.76-3.42-5.05-6.3-5.05-6.36,0-.42,3.54-2.11,4.58-2.2.68-.03,1.31.06,1.4.15ZM287.04,716.23c3.65,4.55,3.59,4.49,2.26,3.68-1.31-.77-8.56-7.78-8.29-8.05.09-.09.56-.27,1.04-.45.98-.27.92-.33,4.99,4.81ZM265.86,700.28c-.39.39-4.4.95-6.39.92-3.74-.06-17.94-7.07-21.42-10.55-1.04-1.04-1.75-1.87-1.57-1.87.15-.03,1.6.89,3.24,1.99,3.45,2.38,3.74,2.5,3.83,1.52.06-.53.27-.68.86-.51,1.07.3,1.9-1.19,2.08-3.56.06-1.01.33-1.93.59-1.96,1.37-.24,5.41,1.72,7.87,3.83,5.47,4.75,11.11,9.98,10.9,10.19ZM266.49,721.64s-2.08.06-4.55.03l-4.49-.03,2.82-.62c1.54-.3,3.51-.42,4.37-.21,1.43.36,2.05.62,1.84.83Z"/>
        </g>
        <g>
          <path class="cls-6" d="M696.41,395.82c.16,1.64.2,3.28.14,4.89-.02.32-.03.64-.05.96-.03.48-.08.95-.13,1.42-1.9,16.77-5.24,33.45-9.92,49.59-.81,2.79-1.65,5.53-2.52,8.23-.35,1.08-.7,2.16-1.06,3.22-.72,2.14-1.45,4.24-2.2,6.33-.38,1.04-.76,2.08-1.14,3.11-.19.51-.38,1.03-.58,1.54-.39,1.02-.78,2.04-1.18,3.05-.6,1.52-1.2,3.02-1.81,4.51-1.84,4.46-3.76,8.81-5.75,13.03-.89,1.88-1.78,3.73-2.69,5.56-.46.92-.92,1.83-1.37,2.73-.69,1.36-1.39,2.7-2.1,4.03-11.05,20.85-23.66,38.62-36.25,54.07-4.82,5.92-9.64,11.49-14.36,16.77-.52.59-1.05,1.17-1.57,1.75-.78.87-1.56,1.73-2.34,2.58-1.04,1.14-2.07,2.26-3.09,3.37-.51.56-1.02,1.11-1.53,1.66-1.78,1.92-3.54,3.8-5.27,5.63-.74.79-1.48,1.57-2.21,2.34-.49.52-.97,1.03-1.46,1.54-.24.26-.48.51-.72.77-.48.51-.96,1.01-1.43,1.51-33.63,35.55-72.42,66.44-115.3,91.83-.09.05-.46.27-.46.27-.7.4-1.41.75-2.13,1.08-.63.32-1.23.61-1.84.86-.8.33-1.6.61-2.4.87l-.06.02c-.7.25-1.35.46-2.01.63-1.04.28-2.03.46-2.66.57-.61.13-1.19.23-1.77.31-1.5.2-3.04.3-4.55.3s-3.05-.1-4.56-.3c-.54-.07-1.11-.17-1.69-.29-.77-.13-1.71-.31-2.8-.6-.66-.18-1.25-.37-1.84-.58h-.03c-.86-.28-1.71-.57-2.54-.92-.58-.24-1.21-.54-1.83-.86-.68-.31-1.39-.66-2.09-1.06-.07-.04-.46-.27-.58-.34-42.79-25.34-81.59-56.23-115.22-91.78-15.18-16.05-33.17-35.06-49.94-58.97-.52-.75-1.05-1.5-1.57-2.26-.78-1.14-1.56-2.28-2.34-3.44-.52-.77-1.03-1.55-1.55-2.33-.26-.39-.51-.78-.77-1.17-.77-1.18-1.53-2.37-2.3-3.57-.25-.4-.51-.8-.76-1.21-.51-.81-1.01-1.62-1.51-2.43-.5-.82-1-1.64-1.5-2.47-.5-.83-.99-1.66-1.49-2.5-.98-1.68-1.96-3.37-2.93-5.09-.48-.86-.97-1.72-1.44-2.6-2.15-3.92-4.25-7.95-6.28-12.09-.45-.92-.9-1.85-1.35-2.78-.45-.93-.89-1.87-1.33-2.81-.44-.95-.87-1.9-1.31-2.85-1.72-3.83-3.4-7.75-5-11.77-.4-1.01-.8-2.01-1.19-3.03-.2-.51-.39-1.02-.59-1.53-.39-1.02-.77-2.05-1.15-3.09-2.28-6.22-4.4-12.66-6.34-19.34-4.68-16.14-8.02-32.82-9.92-49.59-.02-.17-.03-.33-.05-.51-.06-.62-.09-1.24-.12-1.86-.02-.29-.03-.57-.04-.85,0-.09,0-.18,0-.27,0-.07,0-50.39,0-102.26v-112.19c0-4.23.75-8.29,2.13-12.05.2-.54.41-1.07.63-1.59.11-.26.22-.52.34-.78.23-.52.48-1.03.74-1.53.13-.25.26-.5.4-.75.4-.75.84-1.47,1.29-2.19.31-.47.62-.94.95-1.4s.66-.91,1.01-1.35c.17-.22.35-.44.53-.66.72-.87,1.47-1.7,2.27-2.49,6.35-6.35,15.12-10.29,24.8-10.29h401.73c9.38,0,18.19,3.65,24.82,10.29,6.63,6.63,10.27,15.45,10.27,24.83l-.18,210.64Z"/>
          <g>
            <path class="cls-2" d="M451.63,416.78v244.9c-3.03-1.89-6.01-3.77-8.93-5.67-.03-.03-.06-.04-.1-.06-.65-.42-1.29-.85-1.93-1.26-3.86-2.53-7.62-5.06-11.28-7.6-1.19-.83-2.37-1.66-3.55-2.49-4.23-2.98-8.31-5.96-12.26-8.93-1.1-.83-2.19-1.66-3.28-2.48-1.68-1.28-3.32-2.56-4.95-3.83-1.05-.83-2.09-1.65-3.12-2.47-1.59-1.27-3.16-2.53-4.71-3.79-5.07-4.14-9.88-8.23-14.43-12.25,0,0-.03-.02-.04-.03-1.82-1.59-3.59-3.19-5.33-4.76-2.67-2.42-5.24-4.8-7.72-7.16-1.55-1.46-3.07-2.91-4.55-4.35-5.44-5.28-10.39-10.33-14.87-15.06-20.24-21.41-43.17-46.03-61.73-78.29-.88-1.54-1.76-3.09-2.62-4.67-.86-1.57-1.71-3.16-2.55-4.77-.84-1.6-1.67-3.23-2.49-4.88-.41-.82-.81-1.65-1.22-2.48-3.22-6.66-6.24-13.61-9-20.91-2.42-6.38-4.66-13.02-6.67-19.93-.71-2.45-1.36-4.85-1.97-7.2-1.83-7.03-3.23-13.61-4.32-19.59h193.62Z"/>
            <rect class="cls-1" x="255.23" y="180.36" width="196.27" height="175.72"/>
            <polygon class="cls-2" points="665.9 180.18 665.72 355.9 469.64 355.9 469.64 180.18 665.9 180.18"/>
            <path class="cls-1" d="M663.26,416.78c-1.09,5.98-2.49,12.56-4.32,19.59-.61,2.35-1.27,4.75-1.97,7.2-2.01,6.91-4.25,13.56-6.67,19.93-2.76,7.3-5.79,14.26-9,20.91-.41.83-.81,1.66-1.22,2.48-.82,1.65-1.65,3.28-2.49,4.88-.84,1.61-1.69,3.2-2.55,4.77-.87,1.58-1.74,3.13-2.62,4.67-18.56,32.27-41.48,56.88-61.73,78.29-4.48,4.73-9.43,9.78-14.88,15.06-1.48,1.44-3,2.89-4.55,4.35-2.48,2.36-5.06,4.74-7.72,7.16-1.74,1.58-3.51,3.17-5.33,4.76,0,0-.03.02-.04.03-4.55,4.02-9.36,8.11-14.43,12.25-1.54,1.25-3.11,2.52-4.71,3.79-1.03.82-2.07,1.64-3.12,2.47-1.62,1.27-3.28,2.54-4.95,3.83-1.08.82-2.17,1.65-3.28,2.48-3.96,2.98-8.04,5.95-12.26,8.93-1.18.83-2.36,1.66-3.55,2.49-3.66,2.54-7.42,5.07-11.28,7.6-.64.41-1.28.84-1.93,1.26-.03.02-.06.04-.1.06-2.92,1.89-5.89,3.78-8.92,5.67v-244.9h193.62Z"/>
          </g>
          <path class="cls-1" d="M701.76,180.2c0-9.58-3.72-18.59-10.49-25.37-6.77-6.78-15.78-10.51-25.36-10.51H255.36c-9.88,0-18.85,4.02-25.34,10.51-.81.81-1.58,1.66-2.32,2.55-.18.22-.36.45-.54.67-.35.45-.7.91-1.03,1.38-.33.47-.65.94-.97,1.43-.47.73-.91,1.47-1.32,2.23-.14.26-.27.51-.41.77-.26.51-.52,1.04-.76,1.57-.12.26-.24.53-.35.8-.23.54-.44,1.08-.64,1.63-1.41,3.84-2.18,7.99-2.18,12.32v109.51c0,54.77,0,109.55,0,109.63,0,.09,0,.19,0,.28,0,.28.03.57.04.87.03.64.06,1.27.12,1.9.02.18.03.35.05.52,1.94,17.13,5.35,34.18,10.13,50.67,1.98,6.83,4.15,13.42,6.48,19.77.39,1.06.78,2.11,1.18,3.16.2.52.4,1.04.6,1.56.4,1.04.81,2.07,1.22,3.1,1.64,4.11,3.35,8.11,5.11,12.02.44.98.89,1.95,1.33,2.91.45.96.9,1.92,1.36,2.88.46.95.91,1.9,1.38,2.84,2.08,4.24,4.22,8.35,6.42,12.36.49.89.98,1.77,1.47,2.65.99,1.76,1.99,3.49,2.99,5.21.5.86,1.01,1.71,1.52,2.55.51.85,1.02,1.69,1.53,2.52.51.83,1.03,1.66,1.54,2.49.26.41.52.82.78,1.24.78,1.23,1.56,2.45,2.35,3.65.26.4.53.8.79,1.2.53.8,1.05,1.59,1.58,2.38.79,1.18,1.59,2.35,2.39,3.51.53.77,1.07,1.54,1.6,2.3,17.14,24.44,35.52,43.87,51.04,60.26,34.37,36.32,74.01,67.9,117.74,93.79.12.07.52.3.59.35.72.41,1.44.76,2.14,1.08.64.33,1.28.63,1.87.87.86.36,1.72.65,2.6.94h.03c.6.22,1.2.41,1.88.6,1.12.3,2.08.47,2.86.61.59.12,1.17.23,1.73.3,1.55.2,3.12.31,4.66.31s3.12-.1,4.65-.31c.6-.08,1.19-.18,1.81-.31.64-.11,1.65-.29,2.72-.58.67-.18,1.34-.39,2.05-.64l.06-.02c.82-.26,1.63-.55,2.45-.88.63-.26,1.24-.55,1.88-.88.74-.34,1.46-.7,2.17-1.1,0,0,.38-.22.47-.28,43.82-25.95,83.46-57.52,117.83-93.84.49-.51.97-1.03,1.46-1.54.25-.26.49-.52.74-.78.49-.52.99-1.04,1.49-1.57.75-.79,1.5-1.59,2.26-2.39,1.77-1.88,3.57-3.8,5.39-5.76.52-.56,1.04-1.12,1.56-1.69,1.05-1.13,2.1-2.28,3.16-3.44.79-.87,1.59-1.75,2.39-2.64.54-.59,1.07-1.19,1.61-1.79,4.83-5.4,9.75-11.1,14.68-17.14,12.86-15.79,25.75-33.94,37.04-55.25.72-1.36,1.44-2.74,2.14-4.12.47-.92.94-1.85,1.4-2.79.93-1.87,1.85-3.76,2.75-5.68,2.03-4.32,4-8.76,5.88-13.32.63-1.52,1.25-3.06,1.85-4.61.41-1.03.81-2.07,1.2-3.12.2-.52.4-1.05.59-1.57.39-1.05.78-2.11,1.17-3.18.77-2.13,1.52-4.29,2.25-6.47.37-1.09.73-2.19,1.08-3.29.89-2.76,1.75-5.56,2.57-8.41,4.78-16.49,8.2-33.54,10.13-50.67.05-.48.1-.97.13-1.46.02-.33.04-.65.05-.98.07-1.65.02-3.32-.14-5l.18-215.26ZM683.71,400.87c-1.83,16.13-5.03,32.18-9.54,47.69-19.93,68.7-60.7,111.79-90.47,143.26-33.22,35.11-71.55,65.64-113.94,90.74-.04.03-.09.04-.13.06-.04.03-.08.06-.12.09-.36.2-.73.36-1.1.53-.31.15-.61.32-.92.45-.43.18-.87.31-1.31.45-.31.1-.61.22-.93.31-.49.13-1,.21-1.5.3-.26.05-.53.12-.8.16-.77.1-1.55.15-2.33.15s-1.56-.05-2.33-.16c-.25-.03-.49-.1-.73-.14-.53-.09-1.05-.18-1.57-.32-.29-.08-.57-.19-.86-.29-.46-.15-.93-.29-1.38-.47-.31-.13-.61-.3-.91-.44-.37-.18-.75-.33-1.1-.54-.04-.03-.08-.06-.12-.08-.04-.03-.09-.04-.13-.07-42.38-25.1-80.72-55.63-113.94-90.74-29.77-31.46-70.54-74.56-90.47-143.25-4.5-15.52-7.72-31.57-9.54-47.69,0-.02,0-.05,0-.07-.04-.41-.05-.81-.07-1.22,0-.22-.03-.44-.03-.66,0-.02,0-.04,0-.06v-218.68c0-9.9,8.02-17.93,17.93-17.93h410.54c4.76,0,9.32,1.89,12.68,5.26,3.36,3.36,5.25,7.93,5.24,12.69l-.19,216.27c.2,1.45.24,2.93.07,4.41Z"/>
        </g>
        <g>
          <path class="cls-7" d="M351.07,364.84h-17.49l-16.64,42.32h13.43l3.24-8.34h14.44l3.05,8.34h16.88l-16.91-42.32ZM336.42,389.58l4.36-12.28,4.36,12.28h-8.72Z"/>
          <path class="cls-7" d="M415.47,398.01c-2.45,0-4.35-.83-5.71-2.48-1.35-1.65-2.03-4.78-2.03-9.39,0-8.23,2.61-12.34,7.82-12.34,1.87,0,3.5.63,4.88,1.89s2.07,3.31,2.07,6.14l15.44-.65c-.5-5.13-2.67-9.24-6.5-12.34-3.83-3.1-9.31-4.65-16.45-4.65-7.64,0-13.59,2.03-17.85,6.11-4.26,4.07-6.4,9.43-6.4,16.06s2.25,11.95,6.75,15.75c4.5,3.8,10.41,5.7,17.73,5.7,6.08,0,11.21-1.38,15.38-4.15,4.17-2.77,6.61-6.75,7.33-11.94l-15.12-.71c-.53,4.67-2.98,7.01-7.35,7.01Z"/>
          <path class="cls-7" d="M459.5,364.84v10.14h11.18v32.18h15.68v-32.18h11.18v-10.14h-38.03Z"/>
          <path class="cls-7" d="M522.45,364.84v42.32h16.54v-42.32h-16.54Z"/>
          <path class="cls-7" d="M563.91,364.84v10.14h11.18v32.18h15.68v-32.18h11.18v-10.14h-38.03Z"/>
        </g>
        <g>
          <path class="cls-6" d="M426,492.8c-.03-.98-.08-1.99-.17-3.03,0-.05,0-.09-.02-.14-.11-1.35-.28-2.71-.51-4.03l-.04-.24c-.05-.27-.1-.55-.15-.82-.08-.42-.17-.86-.26-1.27l-.03-.11c-.05-.26-.1-.51-.16-.74-.07-.31-.16-.63-.24-.93-.08-.34-.16-.66-.24-.95-.04-.16-.09-.31-.15-.49-.08-.32-.18-.66-.28-.98-.13-.39-.26-.8-.39-1.19-.19-.57-.39-1.13-.6-1.68-.19-.51-.38-1-.58-1.49-.16-.42-.34-.81-.52-1.2-.17-.39-.34-.77-.52-1.14-.12-.25-.24-.5-.36-.74l-.19-.38c-.16-.31-.32-.63-.5-.96-5.35-9.98-13.99-17.97-24.33-22.53l-.42-.17c-.2-.09-.41-.17-.59-.25-.38-.17-.75-.31-1.13-.45-.02-.01-.05-.03-.05-.03-.51-.2-1.02-.39-1.52-.55-1.1-.38-2.1-.7-3.06-.95-.52-.16-1.04-.29-1.57-.41l-.36-.09c-.41-.09-.82-.19-1.22-.27-1.29-.27-2.63-.49-3.97-.66-.48-.07-.96-.12-1.46-.18l-1.43-.11c-1.29-.09-2.46-.13-3.57-.13h-.32c-.45,0-.9.02-1.39.04-.3.01-.6.02-.88.04-.53.02-1.04.05-1.57.09l-.31.03c-.32.03-.65.07-.97.11l-.32.03-.14.02c-.18.01-.35.03-.48.05-.44.05-.88.12-1.29.18-.15.02-.29.04-.44.07l-.13.02s-.15.02-.18.03c-1.3.22-2.55.48-3.67.76-.12.01-.24.04-.3.07l-.23.07c-.59.13-1.2.3-1.8.5-.32.07-.67.18-1.04.32-.92.28-1.76.57-2.53.88-.33.12-.66.25-.99.38-.68.28-1.35.55-1.98.85-.49.21-.97.45-1.44.69-.91.43-1.82.92-2.79,1.48l-1.05.62c-.69.43-1.38.87-2.05,1.32l-.99.69c-.7.49-1.27.92-1.81,1.34-.09.05-.16.11-.22.16-.25.2-.49.41-.74.6l-.13.11c-.62.52-1.24,1.05-1.84,1.59l-.89.84c-2.64,2.53-5.01,5.34-7.05,8.35l-.06.09-.6.9c-.23.36-.45.7-.65,1.05-.7,1.15-1.28,2.19-1.79,3.19-.22.42-.44.87-.64,1.31,0,0-.33.7-.42.9-.24.51-.46,1.02-.66,1.52-.16.4-.32.78-.45,1.16-.23.57-.46,1.2-.7,1.92l-.22.65-.4,1.31c-.16.53-.3,1.08-.44,1.63-.16.58-.3,1.19-.43,1.8-.13.61-.25,1.2-.36,1.78-.02.08-.03.17-.03.29-.26,1.46-.43,2.67-.54,3.82,0,.03-.01.05-.01.07-.09.92-.14,1.72-.17,2.47-.04.79-.06,1.6-.06,2.42,0,.41.01.85.02,1.35,0,.41.02.83.05,1.24.03.71.08,1.41.15,2.09.06.64.13,1.27.21,1.89,2.41,18.17,15.04,34.15,32.19,40.72.02.02.05.03.07.04.57.21,1.15.41,1.72.6.52.2,1.11.39,1.84.6l.2.06c.21.06.43.12.67.2l1.62.4c.28.07.55.14.81.19,1.26.29,2.38.5,3.39.64l.24.04c1.34.19,2.67.33,3.97.41,1.14.09,2.3.14,3.44.14.58,0,1.17-.01,1.78-.04.31,0,.63-.03.93-.06l.91-.05.32-.02c1.22-.09,2.45-.23,3.69-.43.01,0,.03,0,.05-.01.11,0,.21-.01.24-.03.39-.05.78-.11,1.17-.19.77-.15,1.52-.3,2.27-.46.39-.09.76-.18,1.12-.27.09-.02.17-.05.25-.08.38-.08.76-.18,1.11-.29.41-.1.81-.22,1.21-.35.55-.17,1.09-.35,1.63-.54,16.77-5.85,29.38-20.28,32.92-37.67.24-1.2.44-2.43.61-3.68v-.13c.06-.37.1-.73.14-1.1.05-.46.09-.91.11-1.36.04-.43.06-.84.08-1.25.05-.82.07-1.67.07-2.6,0-.43-.01-.86-.02-1.32ZM379.01,536.02c-.02,2.61-.03,4.19-.03,4.27,0,.06,0,.15.01.16,0,.04,0,.08-.03.11-.03.02-.07.04-.1.06-1.34.08-2.44.12-3.45.12s-2.07-.03-3.18-.11c-.06,0-.12-.06-.12-.13l.02-4.44c.03-14.14-.04-38.38-.78-41.81-1.26-5.81-6.11-13.73-13.79-17.41-1.32-.64-2.69-.97-4.07-.97-.23,0-.45.01-.62.03-.05,0-.11-.04-.13-.07-.44-.83-1.33-1.98-3.04-2.74-.67-.3-1.37-.45-2.07-.45-.98,0-1.95.29-2.78.83-1.46.94-2.32,2.53-2.32,4.27s.87,3.51,2.33,4.58c.9.65,1.93,1,2.97,1,.5,0,.99-.09,1.45-.24,2.5-.79,3.45-2.59,3.8-3.59.01-.04.05-.06.09-.07.03-.01.06-.02.1-.03h.2c.86,0,1.72.2,2.56.61,6.32,3.05,10.76,9.85,11.87,15,.71,3.26.72,31.91.71,40.62v4.46c-.01.05-.03.09-.07.12l.37.43-.48-.41c-22.6-3.38-39.65-23.2-39.65-46.1,0-1.47.07-2.98.22-4.5,0-.04.03-.09.03-.09.03-.02.07-.03.12-.03.03,0,.07.01.1.01h.11c.1,0,1.39-.05,4.33-.14,3.75-.1,7.28-.15,10.19-.15,1.68,0,3.05.02,3.96.08,5.74.32,9.94,6.07,10.2,9.74.25,3.62.09,9.53.03,11.31,0,.01-.02.04-.06.07-1.39.88-3.78,2.75-4.22,5.42-.27,1.72.23,3.42,1.4,4.79,1.26,1.51,3.15,2.42,5.04,2.42,1.59,0,3.12-.73,4.2-2.01,1.24-1.51,1.74-3.54,1.37-5.57-.49-2.7-2.8-4.35-4.09-5.06-.05-.03-.08-.07-.11-.15.06-1.74.21-7.68-.05-11.47-.4-5.67-6.38-12.59-13.49-13.01-.93-.06-2.31-.1-4.24-.1-2.72,0-5.89.08-8.44.14l-3.2.08c-1.15.03-2.04.05-2.52.07-.02,0-.07,0-.11-.05,0-.01-.02-.11-.03-.11,3.24-18.03,16.83-32.54,34.59-36.99.01,0,.12.05.12.06.05.03.07.07.07.11-.01.43-.04,4.87-.04,4.87-.02,6.56-.01,11.79.04,15.53.07,4.95,3.76,7.71,7.32,10.37,3.56,2.67,7.23,5.42,7.36,10.53.14,6.11.15,21.5.03,45.73ZM349.45,478.93c-.28.36-.69.62-1.26.8-.11.04-.23.06-.35.06-.43,0-.8-.25-.9-.32-.54-.39-.89-1.07-.89-1.73s.39-1.1.7-1.31c.27-.17.56-.25.88-.25.23,0,.44.04.64.12.46.2.84.48,1.12.82.45.52.47,1.29.06,1.81ZM358.7,514.28c.33-.28.73-.44,1.14-.44.04,0,.07-.01.11-.01.42.01.84.17,1.17.45.69.59,1.1,1.21,1.22,1.82.18,1.01-.05,2.01-.61,2.68-.4.47-.93.73-1.5.73-.83,0-1.76-.45-2.36-1.14-.35-.41-.74-1.09-.6-1.97.11-.67.59-1.38,1.43-2.12ZM382.75,540.18l-.19-.03s-.06-.07-.06-.11c.01-.59.02-2.19.03-4.51v-.57c.05-8.86.18-35.81-.03-44.74-.17-6.85-4.93-10.41-8.77-13.26-3.98-2.99-5.86-4.72-5.91-7.64-.06-4.13-.07-9.62-.03-16.33.01-2.01.02-3.61.03-4.2v-.24c0-.06,0-.19-.03-.3,0-.02,0-.07.03-.11l-.47-.32.55.26c2.37-.37,4.8-.57,7.22-.59v-.57s.08.6.08.6c.02.01.05.1.06.11-.06.52-.25,2.39-.41,4.72-.39,5.9-.28,10.28.32,13.02,1.71,7.91,11.8,14.16,16.5,14.79,1.34.18,2.55.27,3.61.27.42,0,.8-.02,1.12-.04.04,0,.1.03.13.1.54,1.15,1.66,2.74,3.97,3.78.81.35,1.65.54,2.5.54,1.2,0,2.36-.35,3.36-1.02,1.75-1.13,2.8-3.05,2.8-5.12,0-2.19-1.06-4.28-2.84-5.59-1.09-.79-2.33-1.21-3.6-1.21-.59,0-1.17.1-1.71.28-3.24,1.02-4.36,3.34-4.74,4.62-.01.05-.07.1-.04.1-.02,0-.1,0-.12.01-.23.02-.51.03-.83.03-.93,0-1.99-.08-3.14-.23-3.43-.48-12.11-5.52-13.53-12.05-.71-3.3-.45-9.05-.23-12.19.17-2.62.38-4.45.41-4.62.01-.1.11-.21.15-.22,21.42,1.62,38.87,17.53,42.44,38.67.01.01-.02.11-.02.12-.02.02-.05.04-.12.04h-.24c-.95-.03-2.58-.08-4.51-.13-2.16-.06-5.85-.13-9.15-.13-1.97,0-3.29.01-4.22.07-7.12.42-13.11,7.26-13.5,12.87-.24,3.41-.13,8.55-.05,11.34-.01.01-.07.07-.08.09-1.63.93-3.67,2.56-4.11,5.04-.38,2.02.12,4.01,1.36,5.48,1.08,1.26,2.61,1.99,4.2,1.99,1.89,0,3.77-.89,5.04-2.38,1.18-1.35,1.67-3.04,1.39-4.74-.43-2.64-2.82-4.48-4.21-5.35l-.06-.11c-.02-.73-.24-7.24.03-11.13.26-3.61,4.45-9.29,10.2-9.62,1.02-.06,2.42-.09,3.93-.09,3.19,0,7.17.1,9.8.17,1.85.04,3.36.08,4.15.12h.52c.07.01.13.06.14.13.12,1.33.18,2.7.18,4.07,0,23.13-16.57,42.5-39.3,46.06ZM399.6,477.89c.15-.65.68-1.82,2.47-2.4.23-.07.46-.1.65-.1.51,0,1.03.18,1.52.54.86.62,1.4,1.67,1.4,2.74,0,.89-.43,1.69-1.18,2.17-.45.29-.95.44-1.46.44-.36,0-.72-.08-1.08-.24-1.54-.68-2.08-1.68-2.27-2.23-.1-.28-.12-.61-.05-.92ZM393.9,516.49c.15.87-.24,1.52-.6,1.93-.6.71-1.5,1.15-2.36,1.15-.56,0-1.09-.26-1.49-.74-.57-.66-.8-1.65-.62-2.63.12-.66.59-1.32,1.38-1.95.3-.23.68-.36,1.04-.36.41,0,.8.14,1.12.42.88.72,1.42,1.48,1.53,2.18Z"/>
          <path class="cls-6" d="M414.52,239.63l-63.64-25.09c-.37-.14-.78-.22-1.2-.22s-.81.08-1.2.22l-63.63,25.09c-1.25.5-2.07,1.69-2.07,3.04s.82,2.54,2.07,3.04l28.59,11.26c-.19,1.55-2.94,23.22-3,23.73l-.49,4.27c-.19,1.54.75,3,2.23,3.46l36.49,11.92c.34.1.68.16,1.01.16s.68-.06,1.01-.17l36.5-11.91c1.47-.46,2.4-1.92,2.23-3.46l-.49-4.27c-.06-.5-2.7-21.38-2.99-23.62l13.76-5.51.02,4.75c-4.93,1.04-6.76,5.17-6.78,7.75-.01,2.16.88,4.28,2.45,5.86l-1.89,3.5c-.36.68-.55,1.42-.56,2.21v24.01c.02,1.54.81,3.01,2.11,3.92l8.41,5.76c.87.6,1.89.92,2.95.92.72,0,1.43-.15,2.11-.44,1.77-.79,2.92-2.52,2.93-4.41v-29.7c.01-.82-.2-1.64-.57-2.29l-1.88-3.49c2.1-2.17,3.35-6.05,1.64-9.29-1.13-2.16-2.8-4.19-7.27-4.51l.07-6.06,11.03-4.34c1.28-.49,2.11-1.68,2.11-3.03.01-1.34-.82-2.56-2.06-3.06ZM349.68,296.79l-36.04-11.75.39-3.4,34.79,11.33c.28.1.57.15.87.15s.58-.05.85-.15l34.79-11.33.39,3.4-36.04,11.75ZM314.67,278.49l2.38-20.6,31.61,12.44c.33.13.67.2,1.02.2s.7-.07,1.03-.19l31.61-12.45,2.37,20.6-35.01,11.42-35.01-11.42ZM407.41,262.24c.8,2.48.24,4.38-1.66,5.66-.29.2-.6.36-.93.48-.11.05-.2.14-.25.25-.04.12-.03.25.03.35l3.26,6.06c.09.15.13.3.12.47v29.76c0,.44-.29.84-.73,1.04-.19.08-.4.12-.61.12-.31,0-.61-.09-.86-.26l-8.42-5.75c-.32-.24-.51-.58-.51-.94v-23.97c0-.17.04-.33.12-.48l3.26-6.04c.06-.1.06-.23.02-.34-.04-.11-.12-.2-.23-.25-.36-.15-.71-.34-1.01-.55-1.36-.92-2.17-2.37-2.16-3.89.01-2.06,2.55-4.69,5.39-4.69h.16c1.9.08,4.51,1.39,5.01,2.97ZM402.36,246.62l-50.39-6.31c-.27-.03-.53-.04-.78-.04-1.31,0-2.03.45-2.14,1.34-.04.34.06.67.3.97.45.56,1.4.96,2.45,1.05l45.19,5.29-47.31,18.35-33.9-13.36c-.07-.03-.14-.06-.21-.07l-28.37-11.17,62.48-24.63,62.49,24.63-9.81,3.95Z"/>
          <g>
            <g>
              <path class="cls-5" d="M543.5,313c.07.05.13.09.2.13.09.06.18.11.28.16-.16-.09-.32-.19-.48-.29ZM526.97,293.28s-.01-.02-.02-.03c.01.03.02.06.03.08.06.15.12.3.18.45-.06-.16-.13-.33-.19-.5Z"/>
              <path class="cls-5" d="M526.97,293.28c.06.17.13.34.19.5.06.15.12.29.19.44-.13-.31-.26-.62-.38-.94Z"/>
              <path class="cls-5" d="M527.35,294.22c-.07-.15-.13-.29-.19-.44-.06-.15-.12-.3-.18-.45,0-.02-.01-.03-.01-.05.12.32.25.63.38.94Z"/>
              <path class="cls-5" d="M543.98,313.29c-.1-.05-.19-.1-.28-.16-.07-.04-.13-.08-.2-.13.16.1.32.2.48.29Z"/>
              <path class="cls-6" d="M624.39,218.07c-.13-.32-.3-.61-.47-.9l-.11-.2c-.05-.07-.09-.12-.14-.18-1.92-2.44-4.8-3.84-7.9-3.84-1.4,0-2.76.29-4.04.86l-7.6,3.35c-.19-.28-.46-.5-.78-.65l-14.61-6.82c-.63-.28-1.31-.44-1.97-.44-.61,0-1.25.13-1.79.36l-4.39,1.78c-.94.4-1.6,1.24-1.77,2.24-.18,1.03.19,2.05,1.02,2.79l9,7.49-8.67,3.83-2.67-1.82-.16.24.02-.33c-.54-.3-1.08-.45-1.61-.45-.36,0-.74.08-1.05.21l-2.94,1.14c-.81.33-1.43,1.05-1.65,1.91-.23.84-.05,1.75.47,2.41l4.2,5.64c.82,1.16,2.07,1.97,3.51,2.26l3.21.74c.66.13,1.33.2,1.99.2,1.18,0,2.37-.22,3.44-.65l6.44-2.63-1.04,10.52c-.07.82.22,1.65.78,2.27.57.61,1.36.95,2.17.95.37,0,.75-.07,1.11-.22l4.37-1.78c1.16-.47,2.09-1.42,2.62-2.68l5.91-15.64c.33-.11,1.01-.37,1.18-.44l10.96-4.46c1.34-.55,2.39-1.6,2.95-2.97.54-1.33.55-2.79.01-4.09ZM586.77,211.53c.35,0,.7.07,1,.22l13.92,6.48-10.53,4.66-9.86-8.21c-.19-.17-.28-.43-.24-.68.04-.24.19-.43.41-.52l4.37-1.77c.29-.12.61-.18.93-.18ZM608.76,224.98l-7.5,19.88c-.28.65-.76,1.14-1.36,1.39l-4.37,1.78c-.08.03-.17.05-.26.05-.18,0-.36-.08-.49-.22-.14-.15-.21-.36-.2-.55l1.18-12.08s.03-.06.03-.09l.51-5.2c.04-.47.38-.91.85-1.1l11.01-4.48c.06-.02.11-.04.17-.04.16,0,.32.09.41.23.04.07.11.22.02.43ZM620.57,223.03l-10.21,4.16.5-1.33c.36-.85.27-1.81-.23-2.57-.52-.77-1.38-1.24-2.3-1.24-.36,0-.7.07-1.03.21l-11.01,4.49c-1.26.5-2.14,1.67-2.24,2.97l-.43,4.34-7.56,3.08c-.79.32-1.68.49-2.57.49-.51,0-1.02-.05-1.51-.16l-3.19-.73c-.89-.18-1.67-.68-2.16-1.37l-4.24-5.69c-.1-.13-.14-.3-.09-.47.04-.17.16-.32.31-.38l2.91-1.13c.07-.03.15-.04.23-.04.15,0,.31.05.48.14l3.2,2.17c.19.12.42.18.64.18.16,0,.31-.03.46-.09l10.98-4.84,21.12-9.34c1-.44,2.06-.66,3.14-.66,2.4,0,4.63,1.08,6.11,2.95.16.26.33.54.42.75.65,1.61-.12,3.45-1.73,4.11Z"/>
              <g>
                <path class="cls-6" d="M543.5,313c.07.05.13.09.2.13.09.06.18.11.28.16-.16-.09-.32-.19-.48-.29ZM526.97,293.28s-.01-.02-.02-.03c.01.03.02.06.03.08.06.15.12.3.18.45.06.15.12.29.19.44-.13-.31-.26-.62-.38-.94Z"/>
                <path class="cls-6" d="M604.55,277.94c-.03-.33-.06-.64-.08-.92,0-.05-.01-.06-.03-.11-.09-1.03-.22-2.06-.39-3.07l-.05-.32c-.05-.32-.1-.64-.17-.95-.09-.46-.19-.91-.31-1.37-.1-.41-.2-.83-.31-1.23-.1-.38-.21-.76-.32-1.15-.28-.92-.53-1.66-.78-2.33-.17-.47-.35-.94-.55-1.39-.16-.4-.32-.78-.5-1.16-.08-.17-.37-.8-.37-.8-.13-.31-.29-.61-.44-.89-.18-.36-.37-.72-.6-1.13-6.62-11.96-18.69-19.66-32.26-20.62-.49-.04-.97-.07-1.45-.08-.48-.02-.95-.03-1.44-.03-9.58,0-18.86,3.43-26.13,9.66-.45.4-.9.8-1.35,1.2-.18.18-.37.35-.54.52-.19.18-.36.36-.58.59-.34.34-.67.69-.99,1.04-.02.01-.07.06-.09.08-.88,1-1.64,1.92-2.34,2.84-.03.04-.07.09-.13.15-.2.27-.39.54-.58.81-.14.19-.27.38-.4.58l-.16.22c-.18.27-.37.55-.53.82l-.51.82s-.38.63-.5.83c-.98,1.71-1.84,3.5-2.54,5.31-.08.18-.15.36-.22.54l-.12.33c-.11.3-.22.62-.32.93l-.3.93c-.1.3-.19.59-.29.94-.09.31-.17.61-.24.9-.26,1-.49,2.02-.67,3.04-.11.65-.21,1.29-.29,1.94-.06.51-.12,1.01-.17,1.53-.04.5-.08,1.02-.1,1.52-.02.33-.03.65-.04,1.04,0,.17,0,.34-.01.53v.49c0,.48.01.96.03,1.41v.11l.03.73v.28c.03.19.04.39.06.56.02.34.05.69.09,1.01.03.35.06.69.11,1.01.04.34.09.67.14,1,.08.58.18,1.15.3,1.71l.06.34s.03.11.03.12c.04.15.07.31.1.44.06.35.15.69.24,1.03.12.5.26,1,.4,1.48.01.02.02.05.03.07l.06.24c.09.26.17.52.25.74.03.13.07.26.12.4l.15.42c.14.4.28.79.45,1.22.01.05.02.09.05.13.12.31.24.62.37.91.09.23.19.46.29.67.13.33.27.65.42.96.17.35.34.7.5,1.02.02.06.06.12.11.23.31.58.61,1.13.92,1.66.05.09.1.19.15.27.2.33.4.66.59.97.09.15.17.29.26.43.21.32.41.62.62.93.31.46.63.9.96,1.35l.29.39c.08.1.16.19.25.32.96,1.24,2.03,2.46,3.22,3.67,2,2.02,4.19,3.81,6.51,5.33.01.01.08.05.1.06.32.23.66.44,1.03.67.04.02.1.06.11.06.16.1.32.2.47.28.2.13.41.25.63.38l.15.09c.05.02.1.06.17.09.04.02.07.04.09.05.28.16.57.32.88.48.55.27,1.1.55,1.66.81.35.17.71.32,1.06.46.29.13.59.25.91.38,4.32,1.7,8.88,2.63,13.53,2.76.26.02.53.02.79.02.35,0,.72,0,1.07,0,.35-.01.69-.02,1.03-.04,10.64-.58,20.91-5.47,28.2-13.44.18-.21.35-.4.51-.58.19-.2.37-.41.53-.61.11-.14.82-1.02.82-1.02.13-.16.26-.32.33-.43.06-.05.1-.11.14-.16,0,0,.65-.88.72-.98.11-.16.22-.32.33-.48l.09-.14s.05-.06.07-.1c.13-.19.27-.39.38-.58.13-.19.26-.39.43-.66.18-.3.36-.58.53-.87.21-.37.42-.73.61-1.1,2.92-5.42,4.56-11.58,4.74-17.79.02-.62.02-1.24,0-1.86,0-.63-.04-1.26-.08-1.88ZM599.49,275.35c-1.1,0-1.91-.45-2.45-1.35-.86-1.6-2.73-2.63-4.75-2.63-1.77,0-3.28.76-4.14,2.08-.82,1.17-1.56,1.79-2.14,1.79-1.45,0-2.6-3.87-3.33-6.77-.49-2.07-2.31-3.52-4.43-3.52-.23,0-.47.02-.7.05-.08.01-.17.02-.25.02-.52,0-1.01-.22-1.38-.63-2.77-2.52-5.56-3.75-8.55-3.75s-5.55,1.09-8.39,2.23c-1.8.73-3.65,1.48-5.58,1.94-.27-.02-.52-.07-.76-.16-.72-.26-1.3-.79-1.63-1.49-.33-.7-.36-1.49-.1-2.2l1.71-4.43c.32-.69.91-1.25,1.58-1.52,10.17-2.73,12.96-9.44,13.65-11.95,17.37,1.58,31.2,14.61,33.81,31.85-.81.29-1.54.44-2.17.44ZM538.19,253.65c1.71,4.32,3.98,13.71-5.11,19.82-1.3.91-2.12,2.33-2.25,3.86-.22,1.22-.38,2.05-3.92,2.23.24-9.72,4.32-19.1,11.28-25.91ZM527.16,293.78c-.06-.15-.12-.3-.18-.45-.01-.02-.02-.05-.03-.08.01.01.02.02.02.03.12.32.25.63.38.94-.07-.15-.13-.29-.19-.44ZM542.5,303.9c-1.24,1.53-2,3.36-2.24,5.31-6.3-5.32-10.71-12.61-12.5-20.67.52-.02,1.15-.04,1.8-.04,2.64,0,3.16.37,3.31.53.56.47,1.19,1.11,1.85,1.79,1.85,1.89,3.94,4.03,6.15,4.03.2,0,.4-.01.6-.05.16.01.32.05.47.12.43.17.77.5.95.92.19.44.19.91.01,1.37-.38,1.19.01,2.51.32,3.57l.13.43c.18.97-.13,1.96-.85,2.69ZM543.7,313.13c-.07-.04-.13-.08-.2-.13.16.1.32.2.48.29-.1-.05-.19-.1-.28-.16ZM592.51,305.46c-7.33,8.04-17.69,12.65-28.41,12.65-7.56,0-14.87-2.36-21.16-6.84.04-3.29.98-4.56,1.79-5.66,1.21-1.35,1.72-3.15,1.38-4.96-.06-.22-.13-.49-.22-.77-.18-.61-.42-1.45-.33-1.76.53-1.34.32-2.9-.54-4.18-.83-1.22-2.14-1.95-3.5-1.95-.15,0-.31.01-.48.03-.04.01-.09.01-.13.01-1.11,0-2.8-1.76-4.17-3.17-.71-.74-1.39-1.44-1.89-1.82-.88-.93-2.51-1.35-5.26-1.35-.77,0-1.59.03-2.32.07-.16-1.12-.26-2.25-.32-3.39,5.42-.29,6.22-2.23,6.65-4.59.03-.79.43-1.53,1.06-1.97,11.41-7.69,7.45-20.07,5.73-24.15,6.73-5.65,15.25-8.76,24.03-8.76.18,0,.36,0,.55.01-.84,2.44-3.47,7.23-11.51,9.4-1.55.52-2.8,1.67-3.45,3.18l-1.7,4.4c-.72,1.56-.53,3.46.51,5.09,1.06,1.66,2.73,2.65,4.47,2.65.1,0,.21,0,.39-.02,2.11-.49,4.22-1.2,6.28-2.11,2.56-1.05,4.99-2.03,7.38-2.03s4.46.94,6.62,2.94c.87.9,2.1,1.42,3.36,1.42.22,0,.44-.01.67-.05.09-.01.18-.02.28-.02.78,0,1.48.55,1.66,1.32.93,4.12,2.72,9.04,5.98,9.04,1.45,0,2.97-1.02,4.55-3.07.36-.56,1.03-.89,1.83-.89.99,0,1.93.5,2.33,1.24.94,1.7,2.73,2.76,4.67,2.76h.17c.87-.03,1.71-.16,2.51-.4.81,10.29-2.54,20.11-9.46,27.7Z"/>
                <path class="cls-6" d="M543.5,313c.07.05.13.09.2.13.09.06.18.11.28.16-.16-.09-.32-.19-.48-.29ZM526.97,293.28s-.01-.02-.02-.03c.01.03.02.06.03.08.06.15.12.3.18.45.06.15.12.29.19.44-.13-.31-.26-.62-.38-.94Z"/>
                <path class="cls-6" d="M581.88,286.05c-.28-1.19-1.05-2.21-2.13-2.82-1.08-.52-1.98-2.35-2.94-4.29l-.12-.24c-1.5-3.09-3.05-6.29-6.14-6.62-.24.03-.5.04-.77.04-2.13,0-5.05-.91-7.42-2.33-.04-.03-.09-.05-.14-.05-1.13-.22-2.39-.34-3.55-.34-3.91,0-6.44,1.28-7.12,3.59-.03.07-.04.16-.06.24-.16.84-.41,1.68-.76,2.56-1.08,3.1-2.43,6.96.12,8.77l.96.84c2.41,2.1,7.42,6.45,8.12,8.6.01.04.03.08.05.11.53.77.2,2.78-.06,4.39-.15.87-.28,1.7-.28,2.31,0,2.76,4.06,8.09,7.55,9.04.38.12.78.18,1.18.18,1.53,0,2.92-.91,3.56-2.34.63-1.65,1.86-2.99,3.5-3.77,1.51-.92,3.21-1.96,3.36-4.53v-6.31c.26-.87.71-1.68,1.33-2.38,1.02-1.41,2.07-2.86,1.76-4.65ZM575.99,292.95v6.37c-.06.92-.57,1.31-1.99,2.18-2.14,1.08-3.8,2.9-4.66,5.11-.18.37-.56.62-.98.62-.13,0-.25-.03-.42-.09-2.58-.7-5.5-5.14-5.51-6.27.05-.48.13-1.05.22-1.65.35-2.42.74-5.16-.13-6.31-1.08-2.91-6.38-7.48-9.9-10.53-.95-.77-.01-3.46.75-5.61.41-1.19.81-2.31.87-3.02.34-.97,1.97-1.52,4.45-1.52.91,0,1.91.08,2.75.22,2.63,1.6,5.64,2.44,8.72,2.44h.26c1.53.42,2.71,2.84,3.85,5.19,1.15,2.37,2.34,4.82,4,5.54.46.3.72.63.78.98.13.78-.64,1.79-1.38,2.77-.88,1.16-1.79,2.36-1.68,3.58Z"/>
              </g>
            </g>
            <path class="cls-6" d="M518.02,288.6c-.49,0-.92-.35-1.01-.84-.42-2.24-.68-4.79-.74-7.36-.01-.57.44-1.04,1.01-1.06.55-.04,1.04.44,1.06,1.01.06,2.47.3,4.9.7,7.03.11.56-.26,1.1-.82,1.21-.06.01-.13.02-.19.02ZM517.68,274.18s-.09,0-.13,0c-.57-.07-.97-.59-.9-1.15.31-2.47.81-4.91,1.49-7.24.16-.55.73-.86,1.28-.7.55.16.86.73.7,1.28-.65,2.23-1.13,4.56-1.42,6.92-.07.52-.51.9-1.02.9ZM521.73,260.35c-.15,0-.31-.03-.45-.1-.51-.25-.73-.87-.48-1.38,1.08-2.22,2.36-4.36,3.81-6.35.34-.46.98-.56,1.44-.23.46.34.56.98.23,1.44-1.38,1.9-2.6,3.93-3.63,6.04-.18.37-.55.58-.93.58ZM530.18,248.69c-.27,0-.54-.1-.74-.31-.4-.41-.39-1.06.02-1.46,1.76-1.71,3.69-3.29,5.73-4.69.47-.32,1.11-.2,1.44.27.32.47.2,1.11-.27,1.44-1.95,1.33-3.78,2.84-5.46,4.47-.2.2-.46.29-.72.29ZM542.05,240.54c-.39,0-.76-.22-.94-.6-.24-.52-.02-1.13.5-1.37,2.22-1.04,4.55-1.9,6.93-2.58.55-.15,1.12.16,1.28.71.16.55-.16,1.12-.71,1.28-2.27.64-4.5,1.47-6.62,2.46-.14.07-.29.1-.44.1ZM555.92,236.6c-.52,0-.96-.39-1.02-.91-.07-.57.34-1.08.9-1.15,2.43-.29,4.91-.4,7.38-.31.57.02,1.02.5,1,1.07-.02.57-.48,1.03-1.07,1-2.36-.08-4.74.02-7.06.3-.04,0-.08,0-.12,0Z"/>
          </g>
          <path class="cls-6" d="M614.55,505.01c0-.56-.22-1.12-.6-1.52.05-.47-.05-.96-.28-1.36l-31.27-55.09c-.35-.61-.98-1.03-1.69-1.12-4.69-.53-9.27-1.01-13.74-1.01-3.8,0-7.2.35-10.39,1.05-8.66,1.95-16.27,6.67-22.57,14.02-5.93-1.77-11.14-2.64-15.92-2.64-3.74,0-7.31.54-10.61,1.62-8.16,2.73-13.54,6.75-18.57,13.91-.35.48-.47,1.08-.39,1.65-.4.42-.62.97-.62,1.55v3.77c0,.39.1.77.3,1.1l.29.53c-.38.41-.58.94-.58,1.5v5.2c0,.36.09.72.27,1.07l28.76,52.89c.41.74,1.45,1.25,1.84,1.33.29.06.74.12,1.13.12.09,0,.17,0,.23,0,.47-.04,1.14-.24,1.58-.68,11.11-10.98,24.69-17.28,37.26-17.28,2.07,0,4.17.17,6.25.5.17.03.4.04.63.04s.51,0,.75-.05c.56-.07,1.39-.36,1.82-.75,8.98-8.3,18.21-12.15,29.01-12.15,4.4,0,9.09.61,14.36,1.87.16.04.33.06.51.06.51,0,1.01-.17,1.39-.48.54-.44.85-1.08.85-1.76v-3.67c0-.29-.05-.56-.16-.83.1-.27.16-.54.16-.83v-2.56ZM564.31,519.29c-2.19-.46-4.56-.69-7.05-.69-13.23,0-27.63,6.36-35.74,15.63.03-.24.07-.47.11-.73.06-.37.12-.76.18-1.23,8.77-8.96,21.55-14.3,34.24-14.3,2.7,0,5.44.24,8.13.7l.13.61ZM580.11,448.66l30.55,53.83c-3.93-.58-7.72-.88-11.29-.88-13.92,0-25.28,4.46-33.77,13.25l-29.36-53.16c5.9-6.83,12.95-11.21,20.95-13.02,3-.65,6.19-.97,9.79-.97,4.26,0,8.65.44,13.13.95ZM518.55,539.27l-27.84-51.22v-2.91c4.88,8.8,9.48,17.56,14.33,26.81,4.37,8.34,8.89,16.95,13.71,25.71l-.2,1.61ZM519.29,533.12c-4.08-7.53-8.04-15.07-11.88-22.38-5.64-10.74-10.97-20.89-16.7-31.05v-1.47c11.19,19.99,21.85,39.93,28.72,53.74l-.14,1.17ZM491.4,474.2c5.38-7.52,10.68-10.47,16.97-12.58,3-.98,6.27-1.47,9.71-1.47,4.62,0,9.71.87,15.58,2.66l29.1,52.88c-2.06-.27-4.18-.4-6.33-.4-13.61,0-26.76,5.25-35.35,14.08-9.5-19.01-23.76-44.63-29.69-55.17ZM558.96,522.82c-12.88,0-26.68,6.18-38.1,17.01l.14-1.21c6.66-9.46,23.21-17.14,36.99-17.14,2.45,0,4.76.25,6.87.73l.09,1.05c-1.97-.3-3.99-.44-5.99-.44ZM611.75,512.2c-5.21-1.21-9.9-1.79-14.31-1.79-11.21,0-20.8,3.86-30.08,12.12l-.03-.46v-.18c8.52-8.75,19.35-13,33.08-13,3.52,0,7.33.28,11.34.83v2.48ZM611.75,506.91c-4.1-.66-8.09-1-11.87-1-13.73,0-24.88,4.32-33.2,12.84l-.14-.74c8.24-8.86,19.9-13.55,33.74-13.55,3.72,0,7.57.35,11.46,1.03v1.42Z"/>
        </g>
      </g>
    </g>
  </g>
</svg>